<svg width="158" height="32" viewBox="0 0 158 32" fill="none" xmlns="http://www.w3.org/2000/svg">
<path d="M140.35 10.8391C141.748 10.0433 143.121 9.49602 144.47 9.19726C145.807 8.87764 147.03 8.84364 148.14 9.09525C150.131 9.53565 151.791 10.3164 153.12 11.4376C154.458 12.526 155.751 14.1651 156.998 16.3548C157.259 16.8136 157.434 17.2664 157.523 17.713C157.633 18.1478 157.728 18.7284 157.811 19.4549C157.866 20.2795 157.969 20.8974 158.121 21.3084C158.119 22.2758 157.829 23.3664 157.25 24.5802C156.692 25.782 155.978 26.9063 155.111 27.9529C154.243 28.9995 153.392 29.7604 152.558 30.2355C148.533 32.528 144.881 32.7848 141.604 31.006C140.684 30.5076 139.852 29.9185 139.105 29.2387C138.38 28.5471 137.792 27.805 137.34 27.0125C136.129 24.8854 135.453 22.8259 135.313 20.8342C135.182 18.8098 135.545 16.9736 136.401 15.3256C136.941 14.3827 137.56 13.5054 138.258 12.6937C138.965 11.8493 139.662 11.2311 140.35 10.8391ZM140.647 25.2534C141.289 26.3795 142.067 27.165 142.984 27.6099C143.921 28.0428 145.165 28.3839 146.715 28.6332C147.781 28.468 148.5 28.3485 148.872 28.2746C149.233 28.1798 149.611 28.0196 150.007 27.7939C152.113 26.5942 153.466 25.0645 154.064 23.2049C154.662 21.3452 154.39 19.4143 153.25 17.4123C152.347 15.8273 151.457 14.677 150.58 13.9614C149.703 13.2457 148.598 12.7842 147.265 12.5769C146.559 12.4539 145.778 12.5123 144.92 12.7522C144.083 12.9803 143.237 13.3378 142.382 13.8248C141.089 14.5612 140.193 15.5825 139.694 16.8886C139.184 18.1739 139.022 19.5639 139.211 21.0585C139.42 22.5413 139.899 23.9396 140.647 25.2534Z" fill="#F30701"/>
<mask id="mask0" mask-type="alpha" maskUnits="userSpaceOnUse" x="-1" y="-2" width="135" height="26">
<path d="M18.16 3.02C18.52 3.452 18.772 3.8 18.916 4.064C19.06 4.328 19.132 4.58 19.132 4.82C19.132 5.108 18.94 5.444 18.556 5.828C18.196 6.212 17.836 6.404 17.476 6.404C16.996 6.404 16.612 6.332 16.324 6.188C16.036 6.044 15.796 5.816 15.604 5.504C15.22 4.928 14.752 4.436 14.2 4.028C13.648 3.596 12.784 3.38 11.608 3.38C10.6 3.38 9.448 3.608 8.152 4.064C6.88 4.52 5.968 5.084 5.416 5.756C4.936 6.356 4.516 7.268 4.156 8.492C3.82 9.716 3.652 10.904 3.652 12.056C3.652 13.448 3.952 14.732 4.552 15.908C5.176 17.06 6.064 17.984 7.216 18.68C8.392 19.376 9.796 19.724 11.428 19.724C12.316 19.724 13.228 19.556 14.164 19.22C15.124 18.86 15.952 18.284 16.648 17.492H16.612C17.044 17.036 17.584 16.808 18.232 16.808C18.616 16.808 18.976 16.976 19.312 17.312C19.672 17.648 19.852 17.984 19.852 18.32C19.852 18.68 19.792 19.004 19.672 19.292C19.576 19.556 19.384 19.856 19.096 20.192C18.112 21.296 16.948 22.052 15.604 22.46C14.26 22.868 12.652 23.072 10.78 23.072C9.124 23.072 7.444 22.676 5.74 21.884C4.06 21.092 2.764 20.132 1.852 19.004C1.372 18.308 0.904 17.312 0.448 16.016C0.0160001 14.696 -0.2 13.628 -0.2 12.812C-0.2 10.724 0.112 8.744 0.736 6.872C1.384 4.976 2.344 3.464 3.616 2.336C4.456 1.568 5.668 0.991999 7.252 0.607999C8.836 0.223999 10.288 0.0319996 11.608 0.0319996C13.216 0.0319996 14.476 0.26 15.388 0.715999C16.324 1.148 17.248 1.916 18.16 3.02ZM27.3968 0.176C27.3968 0.799999 27.3848 1.532 27.3608 2.372C27.3368 3.188 27.3128 3.812 27.2888 4.244C27.2168 5.468 27.1808 6.692 27.1808 7.916C27.1808 8.828 27.2168 9.776 27.2888 10.76C28.0328 9.68 28.8368 8.888 29.7008 8.384C30.5648 7.88 31.6088 7.628 32.8328 7.628C33.7208 7.628 34.5488 8.024 35.3168 8.816C36.0848 9.608 36.5768 10.532 36.7928 11.588C36.8648 12.524 36.9008 13.664 36.9008 15.008C36.9008 15.872 36.9488 17 37.0448 18.392C37.0928 18.92 37.2248 19.412 37.4408 19.868C37.6808 20.324 38.0168 20.552 38.4488 20.552C38.6648 20.552 38.8328 20.54 38.9528 20.516C39.0968 20.492 39.2288 20.48 39.3488 20.48C39.6848 20.48 39.9128 20.564 40.0328 20.732C40.1768 20.9 40.2488 21.14 40.2488 21.452C40.2488 22.028 39.9608 22.46 39.3848 22.748C38.8088 23.036 38.2808 23.18 37.8008 23.18C36.0728 23.18 34.8848 22.46 34.2368 21.02C33.8768 20.204 33.6488 19.148 33.5528 17.852C33.4568 16.532 33.4088 14.996 33.4088 13.244C33.4088 11.516 32.8208 10.652 31.6448 10.652C30.9968 10.652 30.3368 11 29.6648 11.696C29.0168 12.368 28.4768 13.268 28.0448 14.396C27.6128 15.5 27.3968 16.652 27.3968 17.852L27.4328 21.596C27.4328 22.124 27.2288 22.52 26.8208 22.784C26.4128 23.024 26.0288 23.144 25.6688 23.144C25.1408 23.144 24.6608 22.988 24.2288 22.676C23.7968 22.34 23.5808 21.968 23.5808 21.56C23.7488 19.76 23.8328 16.748 23.8328 12.524C23.8328 11.756 23.7728 8.912 23.6528 3.992L23.5448 0.68C23.5448 0.151999 23.7848 -0.304001 24.2648 -0.688002C24.7448 -1.096 25.2848 -1.3 25.8848 -1.3C26.4128 -1.3 26.7968 -1.18 27.0368 -0.940001C27.2768 -0.700001 27.3968 -0.328001 27.3968 0.176ZM42.1239 15.368C42.1239 14.456 42.2919 13.544 42.6279 12.632C42.9639 11.696 43.4079 10.844 43.9599 10.076C44.5119 9.308 45.3879 8.684 46.5879 8.204C47.7879 7.7 48.8559 7.448 49.7919 7.448C50.7519 7.448 51.7239 7.58 52.7079 7.844C53.7159 8.108 54.4119 8.516 54.7959 9.068C55.6839 10.316 56.1279 11.54 56.1279 12.74C56.1279 13.388 55.9839 13.94 55.6959 14.396C55.4319 14.852 55.0479 15.344 54.5439 15.872C54.1359 16.304 53.4879 16.592 52.5999 16.736C51.7359 16.88 50.8719 16.952 50.0079 16.952C49.4559 16.952 48.7839 16.904 47.9919 16.808C47.1999 16.688 46.4319 16.544 45.6879 16.376C45.7359 16.856 45.8559 17.324 46.0479 17.78C46.2399 18.236 46.4679 18.584 46.7319 18.824C47.2119 19.28 47.7039 19.568 48.2079 19.688C48.7359 19.808 49.4079 19.868 50.2239 19.868C51.0879 19.868 51.8919 19.724 52.6359 19.436C53.2359 19.22 53.7279 19.112 54.1119 19.112C54.5679 19.112 54.9159 19.256 55.1559 19.544C55.3959 19.808 55.5159 20.156 55.5159 20.588C55.5159 21.188 55.1679 21.68 54.4719 22.064C53.7759 22.448 52.9719 22.736 52.0599 22.928C51.1719 23.096 50.4519 23.18 49.8999 23.18C48.7719 23.18 47.6799 22.976 46.6239 22.568C45.5679 22.16 44.6919 21.584 43.9959 20.84C43.4199 20.168 42.9639 19.364 42.6279 18.428C42.2919 17.468 42.1239 16.448 42.1239 15.368ZM49.9719 10.508C49.4439 10.508 48.9159 10.616 48.3879 10.832C47.8599 11.024 47.4279 11.3 47.0919 11.66C46.6599 12.116 46.3599 12.488 46.1919 12.776C46.0479 13.04 45.9519 13.412 45.9039 13.892C46.5039 14.084 47.7519 14.18 49.6479 14.18C50.6799 14.18 51.4719 14.024 52.0239 13.712C52.5999 13.4 52.8879 12.992 52.8879 12.488C52.8879 11.984 52.5759 11.528 51.9519 11.12C51.3279 10.712 50.6679 10.508 49.9719 10.508ZM59.2082 14.756C59.2082 13.292 59.5322 12.08 60.1802 11.12C60.8282 10.136 61.7282 9.212 62.8802 8.348C63.2162 8.108 63.7802 7.904 64.5722 7.736C65.3642 7.544 66.0602 7.448 66.6602 7.448C67.3802 7.448 68.1362 7.604 68.9282 7.916C69.7442 8.204 70.4042 8.54 70.9082 8.924C71.7962 9.572 72.4082 10.328 72.7442 11.192C73.0802 12.032 73.2482 13.04 73.2482 14.216C73.2482 14.72 72.9602 15.212 72.3842 15.692C71.8322 16.148 71.2322 16.376 70.5842 16.376L69.2162 16.34C68.5202 16.34 67.5242 16.364 66.2282 16.412L65.4722 16.448C64.9442 16.496 64.5482 16.52 64.2842 16.52C63.9002 16.52 63.3722 16.472 62.7002 16.376C62.7962 17.504 63.2162 18.392 63.9602 19.04C64.7042 19.664 65.5082 19.976 66.3722 19.976C67.8842 19.976 68.9402 19.676 69.5402 19.076C70.0442 18.716 70.3802 18.488 70.5482 18.392C70.7162 18.296 70.9802 18.248 71.3402 18.248C71.7242 18.248 72.0602 18.428 72.3482 18.788C72.6362 19.148 72.7802 19.508 72.7802 19.868C72.7802 20.276 72.5282 20.696 72.0242 21.128C71.5442 21.536 70.8842 21.968 70.0442 22.424C69.5882 22.616 68.9642 22.784 68.1722 22.928C67.3802 23.072 66.7202 23.144 66.1922 23.144C65.3522 23.144 64.4162 22.904 63.3842 22.424C62.3522 21.92 61.5842 21.368 61.0802 20.768C60.5762 20.168 60.1322 19.316 59.7482 18.212C59.3882 17.108 59.2082 15.956 59.2082 14.756ZM66.3722 13.784C68.0762 13.784 69.3242 13.724 70.1162 13.604C70.0682 12.908 69.8522 12.344 69.4682 11.912C69.0842 11.456 68.5562 11.072 67.8842 10.76C67.6682 10.664 67.4762 10.592 67.3082 10.544C67.1402 10.496 66.9482 10.472 66.7322 10.472C65.6282 10.472 64.6922 10.772 63.9242 11.372C63.1802 11.972 62.7362 12.74 62.5922 13.676C63.7922 13.748 65.0522 13.784 66.3722 13.784ZM76.7981 10.364C76.1741 9.932 75.8621 9.476 75.8621 8.996C75.8621 8.66 76.0061 8.348 76.2941 8.06C76.5821 7.772 77.0141 7.628 77.5901 7.628C78.2621 7.628 78.8621 7.808 79.3901 8.168C79.9421 8.504 80.3261 8.996 80.5421 9.644C81.0941 8.996 81.7181 8.48 82.4141 8.096C83.1341 7.712 83.8661 7.52 84.6101 7.52C85.4981 7.52 86.3021 7.76 87.0221 8.24C87.7421 8.72 88.1021 9.368 88.1021 10.184C88.1021 10.64 87.8981 11.108 87.4901 11.588C87.1061 12.068 86.7101 12.308 86.3021 12.308C86.0861 12.308 85.8941 12.26 85.7261 12.164C85.5821 12.044 85.4021 11.876 85.1861 11.66C84.9461 11.42 84.7421 11.252 84.5741 11.156C84.4061 11.036 84.2141 10.976 83.9981 10.976C83.6141 10.976 83.2541 11.036 82.9181 11.156C82.5821 11.276 82.3541 11.42 82.2341 11.588C81.8501 12.188 81.5621 12.728 81.3701 13.208C81.2021 13.688 81.1181 14.204 81.1181 14.756C81.1181 15.164 81.1061 15.488 81.0821 15.728L81.0461 17.78C81.0461 18.092 81.0581 18.44 81.0821 18.824C81.1061 19.208 81.1301 19.496 81.1541 19.688C81.2261 20.336 81.2621 20.96 81.2621 21.56C81.2621 21.968 81.1061 22.328 80.7941 22.64C80.4821 22.952 80.0981 23.108 79.6421 23.108C78.9221 23.108 78.3941 22.976 78.0581 22.712C77.7221 22.424 77.5541 21.908 77.5541 21.164L77.5181 18.86C77.4941 18.404 77.4821 17.756 77.4821 16.916L77.5181 14.54C77.5661 13.388 77.5901 12.452 77.5901 11.732C77.5901 11.468 77.5301 11.228 77.4101 11.012C77.3141 10.796 77.1101 10.58 76.7981 10.364ZM91.9884 -0.112001C92.8284 -0.0400016 93.5484 0.187998 94.1484 0.571999C94.7724 0.931999 95.0844 1.484 95.0844 2.228C95.0844 2.78 94.8324 3.224 94.3284 3.56C93.8244 3.872 93.2004 4.028 92.4564 4.028C91.7604 4.028 91.2804 3.848 91.0164 3.488C90.7524 3.128 90.6204 2.756 90.6204 2.372C90.6204 1.676 90.7044 1.088 90.8724 0.607999C91.0404 0.103999 91.4124 -0.136 91.9884 -0.112001ZM91.2684 14.756V13.712C91.2684 12.512 91.2084 11.42 91.0884 10.436C90.9924 9.428 90.9324 8.804 90.9084 8.564C90.9324 8.3 91.1124 8.048 91.4484 7.808C91.7844 7.568 92.0844 7.448 92.3484 7.448C92.8044 7.448 93.2604 7.544 93.7164 7.736C94.1964 7.904 94.4964 8.12 94.6164 8.384C94.7364 9.272 94.7964 9.956 94.7964 10.436C94.7964 11.492 94.8444 13.22 94.9404 15.62L94.9764 17.024L95.0484 18.392C95.0724 18.776 95.0964 19.232 95.1204 19.76C95.1444 20.288 95.1564 20.888 95.1564 21.56C95.1564 22.016 94.9284 22.4 94.4724 22.712C94.0404 23.024 93.5844 23.18 93.1044 23.18C92.4084 23.18 91.9164 23.024 91.6284 22.712C91.3644 22.4 91.2324 21.908 91.2324 21.236L91.2684 14.756ZM108.941 13.46C110.045 13.46 110.597 14.084 110.597 15.332C110.597 15.98 110.369 16.448 109.913 16.736C109.481 17.024 108.941 17.168 108.293 17.168C108.101 17.168 107.897 17.156 107.681 17.132C107.465 17.108 107.237 17.084 106.997 17.06C106.277 16.94 105.629 16.88 105.053 16.88C104.645 16.88 104.033 16.928 103.217 17.024C102.353 17.12 101.693 17.168 101.237 17.168C100.589 17.168 100.013 17.048 99.509 16.808C99.005 16.544 98.753 16.112 98.753 15.512C98.753 14.672 99.065 14.132 99.689 13.892C100.313 13.628 101.189 13.496 102.317 13.496L103.505 13.532C104.081 13.58 104.525 13.604 104.837 13.604L107.465 13.532L108.941 13.46ZM129.546 2.768C129.546 2.072 129.702 1.472 130.014 0.967998C130.35 0.439999 130.842 0.176 131.49 0.176C132.042 0.176 132.534 0.284 132.966 0.5C133.398 0.715999 133.614 1.076 133.614 1.58C133.614 2.564 133.566 3.944 133.47 5.72C133.374 7.448 133.326 8.732 133.326 9.572C133.326 10.892 133.374 12.656 133.47 14.864C133.566 16.976 133.614 18.524 133.614 19.508C133.614 20.3 133.602 20.888 133.578 21.272C133.578 21.656 133.362 22.04 132.93 22.424C132.522 22.784 131.886 22.964 131.022 22.964C130.566 22.964 130.17 22.892 129.834 22.748C129.522 22.58 129.306 22.4 129.186 22.208C128.058 20.84 126.414 18.512 124.254 15.224C121.83 11.552 119.85 8.744 118.314 6.8C118.506 8.528 118.602 10.64 118.602 13.136C118.602 14.24 118.578 15.68 118.53 17.456C118.506 19.208 118.458 20.36 118.386 20.912C118.29 21.608 118.074 22.148 117.738 22.532C117.426 22.892 116.922 23.072 116.226 23.072C115.698 23.072 115.302 22.928 115.038 22.64C114.798 22.328 114.654 21.8 114.606 21.056C114.582 20.072 114.642 18.596 114.786 16.628C114.81 16.316 114.846 15.776 114.894 15.008C114.942 14.24 114.966 13.556 114.966 12.956C114.966 11.3 114.882 9.404 114.714 7.268C114.57 4.916 114.498 3.176 114.498 2.048C114.498 1.472 114.702 1.028 115.11 0.715999C115.542 0.403999 116.034 0.247999 116.586 0.247999C117.066 0.247999 117.57 0.367999 118.098 0.607999C120.162 3.2 122.958 7.064 126.486 12.2L129.87 17.384C129.894 17 129.906 16.46 129.906 15.764C129.906 14.54 129.882 13.22 129.834 11.804C129.786 10.388 129.75 9.428 129.726 8.924C129.606 6.596 129.546 4.544 129.546 2.768Z" fill="black"/>
</mask>
<g mask="url(#mask0)">
<rect x="-1" y="-1.27502" width="2.725" height="2.725" fill="#F7D742"/>
<rect x="-1" y="1.44998" width="2.725" height="2.725" fill="#F1C76D"/>
<rect x="-1" y="4.17499" width="2.725" height="2.725" fill="#E59613"/>
<rect x="-1" y="6.89999" width="2.725" height="2.725" fill="#D45301"/>
<rect x="-1" y="9.625" width="2.725" height="2.725" fill="#F1C76D"/>
<rect x="-1" y="12.35" width="2.725" height="2.725" fill="#F1C76D"/>
<rect x="-1" y="15.075" width="2.725" height="2.725" fill="#F1C76D"/>
<rect x="-1" y="17.8" width="2.725" height="2.725" fill="#F1C76D"/>
<rect x="-1" y="20.525" width="2.725" height="2.725" fill="#D45301"/>
<rect x="1.72498" y="-1.27502" width="2.725" height="2.725" fill="#F1C76D"/>
<rect x="1.72498" y="1.44998" width="2.725" height="2.725" fill="#F1C76D"/>
<rect x="1.72498" y="4.17499" width="2.725" height="2.725" fill="#F1C76D"/>
<rect x="1.72498" y="6.89999" width="2.725" height="2.725" fill="#F1C76D"/>
<rect x="1.72498" y="9.625" width="2.725" height="2.725" fill="#EFA308"/>
<rect x="1.72498" y="12.35" width="2.725" height="2.725" fill="#F1C76D"/>
<rect x="1.72498" y="15.075" width="2.725" height="2.725" fill="#E06E52"/>
<rect x="1.72498" y="17.8" width="2.725" height="2.725" fill="#F1C76D"/>
<rect x="1.72498" y="20.525" width="2.725" height="2.725" fill="#F1C76D"/>
<rect x="4.45001" y="-1.27502" width="2.725" height="2.725" fill="#F1C76D"/>
<rect x="4.45001" y="1.44998" width="2.725" height="2.725" fill="#F1C76D"/>
<rect x="4.45001" y="4.17499" width="2.725" height="2.725" fill="#D45301"/>
<rect x="4.45001" y="6.89999" width="2.725" height="2.725" fill="#F7D742"/>
<rect x="4.45001" y="9.625" width="2.725" height="2.725" fill="#F1C76D"/>
<rect x="4.45001" y="12.35" width="2.725" height="2.725" fill="#F1C76D"/>
<rect x="4.45001" y="15.075" width="2.725" height="2.725" fill="#F1C76D"/>
<rect x="4.45001" y="17.8" width="2.725" height="2.725" fill="#D45301"/>
<rect x="4.45001" y="20.525" width="2.725" height="2.725" fill="#F1C76D"/>
<rect x="7.17499" y="-1.27502" width="2.725" height="2.725" fill="#EFA308"/>
<rect x="7.17499" y="1.44998" width="2.725" height="2.725" fill="#F1C76D"/>
<rect x="7.17499" y="4.17499" width="2.725" height="2.725" fill="#F1C76D"/>
<rect x="7.17499" y="6.89999" width="2.725" height="2.725" fill="#F1C76D"/>
<rect x="7.17499" y="9.625" width="2.725" height="2.725" fill="#F1C76D"/>
<rect x="7.17499" y="12.35" width="2.725" height="2.725" fill="#E06E52"/>
<rect x="7.17499" y="15.075" width="2.725" height="2.725" fill="#F1C76D"/>
<rect x="7.17499" y="17.8" width="2.725" height="2.725" fill="#F1C76D"/>
<rect x="7.17499" y="20.525" width="2.725" height="2.725" fill="#EFA308"/>
<rect x="9.89996" y="-1.27502" width="2.725" height="2.725" fill="#F1C76D"/>
<rect x="9.89996" y="1.44998" width="2.725" height="2.725" fill="#D45301"/>
<rect x="9.89996" y="4.17499" width="2.725" height="2.725" fill="#E06E52"/>
<rect x="9.89996" y="6.89999" width="2.725" height="2.725" fill="#D45301"/>
<rect x="9.89996" y="9.625" width="2.725" height="2.725" fill="#F1C76D"/>
<rect x="9.89996" y="12.35" width="2.725" height="2.725" fill="#F1C76D"/>
<rect x="9.89996" y="15.075" width="2.725" height="2.725" fill="#F1C76D"/>
<rect x="9.89996" y="17.8" width="2.725" height="2.725" fill="#F1C76D"/>
<rect x="9.89996" y="20.525" width="2.725" height="2.725" fill="#F1C76D"/>
<rect x="12.625" y="-1.27502" width="2.725" height="2.725" fill="#D45301"/>
<rect x="12.625" y="1.44998" width="2.725" height="2.725" fill="#F1C76D"/>
<rect x="12.625" y="4.17499" width="2.725" height="2.725" fill="#F1C76D"/>
<rect x="12.625" y="6.89999" width="2.725" height="2.725" fill="#F1C76D"/>
<rect x="12.625" y="9.625" width="2.725" height="2.725" fill="#F2CA97"/>
<rect x="12.625" y="12.35" width="2.725" height="2.725" fill="#F1C76D"/>
<rect x="12.625" y="15.075" width="2.725" height="2.725" fill="#F7D742"/>
<rect x="12.625" y="17.8" width="2.725" height="2.725" fill="#EFA308"/>
<rect x="12.625" y="20.525" width="2.725" height="2.725" fill="#F1C76D"/>
<rect x="15.35" y="-1.27502" width="2.725" height="2.725" fill="#E59613"/>
<rect x="15.35" y="1.44998" width="2.725" height="2.725" fill="#F1C76D"/>
<rect x="15.35" y="4.17499" width="2.725" height="2.725" fill="#F2CA97"/>
<rect x="15.35" y="6.89999" width="2.725" height="2.725" fill="#F1C76D"/>
<rect x="15.35" y="9.625" width="2.725" height="2.725" fill="#F1C76D"/>
<rect x="15.35" y="12.35" width="2.725" height="2.725" fill="#F1C76D"/>
<rect x="15.35" y="15.075" width="2.725" height="2.725" fill="#D45301"/>
<rect x="15.35" y="17.8" width="2.725" height="2.725" fill="#F1C76D"/>
<rect x="15.35" y="20.525" width="2.725" height="2.725" fill="#F1C76D"/>
<rect x="18.075" y="-1.27502" width="2.725" height="2.725" fill="#F1C76D"/>
<rect x="18.075" y="1.44998" width="2.725" height="2.725" fill="#F1C76D"/>
<rect x="18.075" y="4.17499" width="2.725" height="2.725" fill="#F1C76D"/>
<rect x="18.075" y="6.89999" width="2.725" height="2.725" fill="#F1C76D"/>
<rect x="18.075" y="9.625" width="2.725" height="2.725" fill="#F7D742"/>
<rect x="18.075" y="12.35" width="2.725" height="2.725" fill="#E06E52"/>
<rect x="18.075" y="15.075" width="2.725" height="2.725" fill="#F1C76D"/>
<rect x="18.075" y="17.8" width="2.725" height="2.725" fill="#F1C76D"/>
<rect x="18.075" y="20.525" width="2.725" height="2.725" fill="#D45301"/>
<rect x="20.8" y="-1.27502" width="2.725" height="2.725" fill="#F1C76D"/>
<rect x="20.8" y="1.44998" width="2.725" height="2.725" fill="#F1C76D"/>
<rect x="20.8" y="4.17499" width="2.725" height="2.725" fill="#F1C76D"/>
<rect x="20.8" y="6.89999" width="2.725" height="2.725" fill="#F1C76D"/>
<rect x="20.8" y="9.625" width="2.725" height="2.725" fill="#F1C76D"/>
<rect x="20.8" y="12.35" width="2.725" height="2.725" fill="#F1C76D"/>
<rect x="20.8" y="15.075" width="2.725" height="2.725" fill="#F1C76D"/>
<rect x="20.8" y="17.8" width="2.725" height="2.725" fill="#F1C76D"/>
<rect x="20.8" y="20.525" width="2.725" height="2.725" fill="#F1C76D"/>
<rect x="23.525" y="-1.27502" width="2.725" height="2.725" fill="#F1C76D"/>
<rect x="23.525" y="1.44998" width="2.725" height="2.725" fill="#F1C76D"/>
<rect x="23.525" y="4.17499" width="2.725" height="2.725" fill="#E06E52"/>
<rect x="23.525" y="6.89999" width="2.725" height="2.725" fill="#F1C76D"/>
<rect x="23.525" y="9.625" width="2.725" height="2.725" fill="#F1C76D"/>
<rect x="23.525" y="12.35" width="2.725" height="2.725" fill="#F7D742"/>
<rect x="23.525" y="15.075" width="2.725" height="2.725" fill="#F1C76D"/>
<rect x="23.525" y="17.8" width="2.725" height="2.725" fill="#F2CA97"/>
<rect x="23.525" y="20.525" width="2.725" height="2.725" fill="#F1C76D"/>
<rect x="26.25" y="-1.27502" width="2.725" height="2.725" fill="#F1C76D"/>
<rect x="26.25" y="1.44998" width="2.725" height="2.725" fill="#F1C76D"/>
<rect x="26.25" y="4.17499" width="2.725" height="2.725" fill="#F1C76D"/>
<rect x="26.25" y="6.89999" width="2.725" height="2.725" fill="#F1C76D"/>
<rect x="26.25" y="9.625" width="2.725" height="2.725" fill="#F1C76D"/>
<rect x="26.25" y="12.35" width="2.725" height="2.725" fill="#F1C76D"/>
<rect x="26.25" y="15.075" width="2.725" height="2.725" fill="#F1C76D"/>
<rect x="26.25" y="17.8" width="2.725" height="2.725" fill="#F1C76D"/>
<rect x="26.25" y="20.525" width="2.725" height="2.725" fill="#F1C76D"/>
<rect x="28.975" y="-1.27502" width="2.725" height="2.725" fill="#F1C76D"/>
<rect x="28.975" y="1.44998" width="2.725" height="2.725" fill="#E59613"/>
<rect x="28.975" y="4.17499" width="2.725" height="2.725" fill="#F1C76D"/>
<rect x="28.975" y="6.89999" width="2.725" height="2.725" fill="#D45301"/>
<rect x="28.975" y="9.625" width="2.725" height="2.725" fill="#E59613"/>
<rect x="28.975" y="12.35" width="2.725" height="2.725" fill="#F1C76D"/>
<rect x="28.975" y="15.075" width="2.725" height="2.725" fill="#F1C76D"/>
<rect x="28.975" y="17.8" width="2.725" height="2.725" fill="#E59613"/>
<rect x="28.975" y="20.525" width="2.725" height="2.725" fill="#F2CA97"/>
<rect x="31.7" y="-1.27502" width="2.725" height="2.725" fill="#F1C76D"/>
<rect x="31.7" y="1.44998" width="2.725" height="2.725" fill="#F1C76D"/>
<rect x="31.7" y="4.17499" width="2.725" height="2.725" fill="#F1C76D"/>
<rect x="31.7" y="6.89999" width="2.725" height="2.725" fill="#F1C76D"/>
<rect x="31.7" y="9.625" width="2.725" height="2.725" fill="#F1C76D"/>
<rect x="31.7" y="12.35" width="2.725" height="2.725" fill="#F1C76D"/>
<rect x="31.7" y="15.075" width="2.725" height="2.725" fill="#F1C76D"/>
<rect x="31.7" y="17.8" width="2.725" height="2.725" fill="#F1C76D"/>
<rect x="31.7" y="20.525" width="2.725" height="2.725" fill="#F1C76D"/>
<rect x="34.425" y="-1.27502" width="2.725" height="2.725" fill="#F1C76D"/>
<rect x="34.425" y="1.44998" width="2.725" height="2.725" fill="#F1C76D"/>
<rect x="34.425" y="4.17499" width="2.725" height="2.725" fill="#F1C76D"/>
<rect x="34.425" y="6.89999" width="2.725" height="2.725" fill="#F1C76D"/>
<rect x="34.425" y="9.625" width="2.725" height="2.725" fill="#F1C76D"/>
<rect x="34.425" y="12.35" width="2.725" height="2.725" fill="#E06E52"/>
<rect x="34.425" y="15.075" width="2.725" height="2.725" fill="#F1C76D"/>
<rect x="34.425" y="17.8" width="2.725" height="2.725" fill="#F1C76D"/>
<rect x="34.425" y="20.525" width="2.725" height="2.725" fill="#F1C76D"/>
<rect x="37.15" y="-1.27502" width="2.725" height="2.725" fill="#E06E52"/>
<rect x="37.15" y="1.44998" width="2.725" height="2.725" fill="#D45301"/>
<rect x="37.15" y="4.17499" width="2.725" height="2.725" fill="#F1C76D"/>
<rect x="37.15" y="6.89999" width="2.725" height="2.725" fill="#E59613"/>
<rect x="37.15" y="9.625" width="2.725" height="2.725" fill="#D45301"/>
<rect x="37.15" y="12.35" width="2.725" height="2.725" fill="#F1C76D"/>
<rect x="37.15" y="15.075" width="2.725" height="2.725" fill="#F1C76D"/>
<rect x="37.15" y="17.8" width="2.725" height="2.725" fill="#F7D742"/>
<rect x="37.15" y="20.525" width="2.725" height="2.725" fill="#F1C76D"/>
<rect x="39.8749" y="-1.27502" width="2.725" height="2.725" fill="#F1C76D"/>
<rect x="39.8749" y="1.44998" width="2.725" height="2.725" fill="#F2CA97"/>
<rect x="39.8749" y="4.17499" width="2.725" height="2.725" fill="#F1C76D"/>
<rect x="39.8749" y="6.89999" width="2.725" height="2.725" fill="#F1C76D"/>
<rect x="39.8749" y="9.625" width="2.725" height="2.725" fill="#F1C76D"/>
<rect x="39.8749" y="12.35" width="2.725" height="2.725" fill="#F1C76D"/>
<rect x="39.8749" y="15.075" width="2.725" height="2.725" fill="#F1C76D"/>
<rect x="39.8749" y="17.8" width="2.725" height="2.725" fill="#F1C76D"/>
<rect x="39.8749" y="20.525" width="2.725" height="2.725" fill="#F1C76D"/>
<rect x="42.6" y="-1.27502" width="2.725" height="2.725" fill="#F1C76D"/>
<rect x="42.6" y="1.44998" width="2.725" height="2.725" fill="#F1C76D"/>
<rect x="42.6" y="4.17499" width="2.725" height="2.725" fill="#F1C76D"/>
<rect x="42.6" y="6.89999" width="2.725" height="2.725" fill="#F1C76D"/>
<rect x="42.6" y="9.625" width="2.725" height="2.725" fill="#F1C76D"/>
<rect x="42.6" y="12.35" width="2.725" height="2.725" fill="#F1C76D"/>
<rect x="42.6" y="15.075" width="2.725" height="2.725" fill="#F1C76D"/>
<rect x="42.6" y="17.8" width="2.725" height="2.725" fill="#F1C76D"/>
<rect x="42.6" y="20.525" width="2.725" height="2.725" fill="#F1C76D"/>
<rect x="45.325" y="-1.27502" width="2.725" height="2.725" fill="#F1C76D"/>
<rect x="45.325" y="1.44998" width="2.725" height="2.725" fill="#D45301"/>
<rect x="45.325" y="4.17499" width="2.725" height="2.725" fill="#E06E52"/>
<rect x="45.325" y="6.89999" width="2.725" height="2.725" fill="#F1C76D"/>
<rect x="45.325" y="9.625" width="2.725" height="2.725" fill="#F2CA97"/>
<rect x="45.325" y="12.35" width="2.725" height="2.725" fill="#F1C76D"/>
<rect x="45.325" y="15.075" width="2.725" height="2.725" fill="#E06E52"/>
<rect x="45.325" y="17.8" width="2.725" height="2.725" fill="#F1C76D"/>
<rect x="45.325" y="20.525" width="2.725" height="2.725" fill="#F1C76D"/>
<rect x="48.05" y="-1.27502" width="2.725" height="2.725" fill="#F1C76D"/>
<rect x="48.05" y="1.44998" width="2.725" height="2.725" fill="#F1C76D"/>
<rect x="48.05" y="4.17499" width="2.725" height="2.725" fill="#F1C76D"/>
<rect x="48.05" y="6.89999" width="2.725" height="2.725" fill="#F1C76D"/>
<rect x="48.05" y="9.625" width="2.725" height="2.725" fill="#F1C76D"/>
<rect x="48.05" y="12.35" width="2.725" height="2.725" fill="#F1C76D"/>
<rect x="48.05" y="15.075" width="2.725" height="2.725" fill="#F1C76D"/>
<rect x="48.05" y="17.8" width="2.725" height="2.725" fill="#F7D742"/>
<rect x="48.05" y="20.525" width="2.725" height="2.725" fill="#F1C76D"/>
<rect x="50.775" y="-1.27502" width="2.725" height="2.725" fill="#EFA308"/>
<rect x="50.775" y="1.44998" width="2.725" height="2.725" fill="#F1C76D"/>
<rect x="50.775" y="4.17499" width="2.725" height="2.725" fill="#F1C76D"/>
<rect x="50.775" y="6.89999" width="2.725" height="2.725" fill="#F1C76D"/>
<rect x="50.775" y="9.625" width="2.725" height="2.725" fill="#F1C76D"/>
<rect x="50.775" y="12.35" width="2.725" height="2.725" fill="#F2CA97"/>
<rect x="50.775" y="15.075" width="2.725" height="2.725" fill="#F1C76D"/>
<rect x="50.775" y="17.8" width="2.725" height="2.725" fill="#F1C76D"/>
<rect x="50.775" y="20.525" width="2.725" height="2.725" fill="#F1C76D"/>
<rect x="53.5" y="-1.27502" width="2.725" height="2.725" fill="#F1C76D"/>
<rect x="53.5" y="1.44998" width="2.725" height="2.725" fill="#F1C76D"/>
<rect x="53.5" y="4.17499" width="2.725" height="2.725" fill="#D45301"/>
<rect x="53.5" y="6.89999" width="2.725" height="2.725" fill="#F1C76D"/>
<rect x="53.5" y="9.625" width="2.725" height="2.725" fill="#F1C76D"/>
<rect x="53.5" y="12.35" width="2.725" height="2.725" fill="#F1C76D"/>
<rect x="53.5" y="15.075" width="2.725" height="2.725" fill="#F1C76D"/>
<rect x="53.5" y="17.8" width="2.725" height="2.725" fill="#D45301"/>
<rect x="53.5" y="20.525" width="2.725" height="2.725" fill="#F1C76D"/>
<rect x="56.225" y="-1.27502" width="2.725" height="2.725" fill="#F1C76D"/>
<rect x="56.225" y="1.44998" width="2.725" height="2.725" fill="#E06E52"/>
<rect x="56.225" y="4.17499" width="2.725" height="2.725" fill="#F1C76D"/>
<rect x="56.225" y="6.89999" width="2.725" height="2.725" fill="#E06E52"/>
<rect x="56.225" y="9.625" width="2.725" height="2.725" fill="#F1C76D"/>
<rect x="56.225" y="12.35" width="2.725" height="2.725" fill="#F1C76D"/>
<rect x="56.225" y="15.075" width="2.725" height="2.725" fill="#F1C76D"/>
<rect x="56.225" y="17.8" width="2.725" height="2.725" fill="#F1C76D"/>
<rect x="56.225" y="20.525" width="2.725" height="2.725" fill="#F1C76D"/>
<rect x="58.95" y="-1.27502" width="2.725" height="2.725" fill="#F1C76D"/>
<rect x="58.95" y="1.44998" width="2.725" height="2.725" fill="#E06E52"/>
<rect x="58.95" y="4.17499" width="2.725" height="2.725" fill="#F1C76D"/>
<rect x="58.95" y="6.89999" width="2.725" height="2.725" fill="#F1C76D"/>
<rect x="58.95" y="9.625" width="2.725" height="2.725" fill="#F1C76D"/>
<rect x="58.95" y="12.35" width="2.725" height="2.725" fill="#F1C76D"/>
<rect x="58.95" y="15.075" width="2.725" height="2.725" fill="#E59613"/>
<rect x="58.95" y="17.8" width="2.725" height="2.725" fill="#F1C76D"/>
<rect x="58.95" y="20.525" width="2.725" height="2.725" fill="#D45301"/>
<rect x="61.675" y="-1.27502" width="2.725" height="2.725" fill="#F1C76D"/>
<rect x="61.675" y="1.44998" width="2.725" height="2.725" fill="#F1C76D"/>
<rect x="61.675" y="4.17499" width="2.725" height="2.725" fill="#F1C76D"/>
<rect x="61.675" y="6.89999" width="2.725" height="2.725" fill="#F1C76D"/>
<rect x="61.675" y="9.625" width="2.725" height="2.725" fill="#F1C76D"/>
<rect x="61.675" y="12.35" width="2.725" height="2.725" fill="#E06E52"/>
<rect x="61.675" y="15.075" width="2.725" height="2.725" fill="#F1C76D"/>
<rect x="61.675" y="17.8" width="2.725" height="2.725" fill="#F1C76D"/>
<rect x="61.675" y="20.525" width="2.725" height="2.725" fill="#F1C76D"/>
<rect x="64.4" y="-1.27502" width="2.725" height="2.725" fill="#F1C76D"/>
<rect x="64.4" y="1.44998" width="2.725" height="2.725" fill="#F1C76D"/>
<rect x="64.4" y="4.17499" width="2.725" height="2.725" fill="#F1C76D"/>
<rect x="64.4" y="6.89999" width="2.725" height="2.725" fill="#D45301"/>
<rect x="64.4" y="9.625" width="2.725" height="2.725" fill="#F1C76D"/>
<rect x="64.4" y="12.35" width="2.725" height="2.725" fill="#F1C76D"/>
<rect x="64.4" y="15.075" width="2.725" height="2.725" fill="#F1C76D"/>
<rect x="64.4" y="17.8" width="2.725" height="2.725" fill="#F1C76D"/>
<rect x="64.4" y="20.525" width="2.725" height="2.725" fill="#F1C76D"/>
<rect x="67.125" y="-1.27502" width="2.725" height="2.725" fill="#F1C76D"/>
<rect x="67.125" y="1.44998" width="2.725" height="2.725" fill="#F1C76D"/>
<rect x="67.125" y="4.17499" width="2.725" height="2.725" fill="#EFA308"/>
<rect x="67.125" y="6.89999" width="2.725" height="2.725" fill="#F1C76D"/>
<rect x="67.125" y="9.625" width="2.725" height="2.725" fill="#F1C76D"/>
<rect x="67.125" y="12.35" width="2.725" height="2.725" fill="#D45301"/>
<rect x="67.125" y="15.075" width="2.725" height="2.725" fill="#F1C76D"/>
<rect x="67.125" y="17.8" width="2.725" height="2.725" fill="#F7D742"/>
<rect x="67.125" y="20.525" width="2.725" height="2.725" fill="#F1C76D"/>
<rect x="69.85" y="-1.27502" width="2.725" height="2.725" fill="#F1C76D"/>
<rect x="69.85" y="1.44998" width="2.725" height="2.725" fill="#F1C76D"/>
<rect x="69.85" y="4.17499" width="2.725" height="2.725" fill="#F1C76D"/>
<rect x="69.85" y="6.89999" width="2.725" height="2.725" fill="#F1C76D"/>
<rect x="69.85" y="9.625" width="2.725" height="2.725" fill="#F1C76D"/>
<rect x="69.85" y="12.35" width="2.725" height="2.725" fill="#F1C76D"/>
<rect x="69.85" y="15.075" width="2.725" height="2.725" fill="#F1C76D"/>
<rect x="69.85" y="17.8" width="2.725" height="2.725" fill="#F1C76D"/>
<rect x="69.85" y="20.525" width="2.725" height="2.725" fill="#F1C76D"/>
<rect x="72.575" y="-1.27502" width="2.725" height="2.725" fill="#E06E52"/>
<rect x="72.575" y="1.44998" width="2.725" height="2.725" fill="#F1C76D"/>
<rect x="72.575" y="4.17499" width="2.725" height="2.725" fill="#F1C76D"/>
<rect x="72.575" y="6.89999" width="2.725" height="2.725" fill="#F1C76D"/>
<rect x="72.575" y="9.625" width="2.725" height="2.725" fill="#E06E52"/>
<rect x="72.575" y="12.35" width="2.725" height="2.725" fill="#F1C76D"/>
<rect x="72.575" y="15.075" width="2.725" height="2.725" fill="#F1C76D"/>
<rect x="72.575" y="17.8" width="2.725" height="2.725" fill="#E06E52"/>
<rect x="72.575" y="20.525" width="2.725" height="2.725" fill="#F1C76D"/>
<rect x="75.3" y="-1.27502" width="2.725" height="2.725" fill="#F1C76D"/>
<rect x="75.3" y="1.44998" width="2.725" height="2.725" fill="#F1C76D"/>
<rect x="75.3" y="4.17499" width="2.725" height="2.725" fill="#F1C76D"/>
<rect x="75.3" y="6.89999" width="2.725" height="2.725" fill="#F1C76D"/>
<rect x="75.3" y="9.625" width="2.725" height="2.725" fill="#F1C76D"/>
<rect x="75.3" y="12.35" width="2.725" height="2.725" fill="#F1C76D"/>
<rect x="75.3" y="15.075" width="2.725" height="2.725" fill="#F1C76D"/>
<rect x="75.3" y="17.8" width="2.725" height="2.725" fill="#F1C76D"/>
<rect x="75.3" y="20.525" width="2.725" height="2.725" fill="#F1C76D"/>
<rect x="78.025" y="-1.27502" width="2.725" height="2.725" fill="#F1C76D"/>
<rect x="78.025" y="1.44998" width="2.725" height="2.725" fill="#F1C76D"/>
<rect x="78.025" y="4.17499" width="2.725" height="2.725" fill="#F1C76D"/>
<rect x="78.025" y="6.89999" width="2.725" height="2.725" fill="#F7D742"/>
<rect x="78.025" y="9.625" width="2.725" height="2.725" fill="#F1C76D"/>
<rect x="78.025" y="12.35" width="2.725" height="2.725" fill="#F1C76D"/>
<rect x="78.025" y="15.075" width="2.725" height="2.725" fill="#EFA308"/>
<rect x="78.025" y="17.8" width="2.725" height="2.725" fill="#F1C76D"/>
<rect x="78.025" y="20.525" width="2.725" height="2.725" fill="#F1C76D"/>
<rect x="80.75" y="-1.27502" width="2.725" height="2.725" fill="#F1C76D"/>
<rect x="80.75" y="1.44998" width="2.725" height="2.725" fill="#F7D742"/>
<rect x="80.75" y="4.17499" width="2.725" height="2.725" fill="#F1C76D"/>
<rect x="80.75" y="6.89999" width="2.725" height="2.725" fill="#F1C76D"/>
<rect x="80.75" y="9.625" width="2.725" height="2.725" fill="#F1C76D"/>
<rect x="80.75" y="12.35" width="2.725" height="2.725" fill="#F1C76D"/>
<rect x="80.75" y="15.075" width="2.725" height="2.725" fill="#F1C76D"/>
<rect x="80.75" y="17.8" width="2.725" height="2.725" fill="#F1C76D"/>
<rect x="80.75" y="20.525" width="2.725" height="2.725" fill="#F1C76D"/>
<rect x="83.475" y="-1.27502" width="2.725" height="2.725" fill="#F1C76D"/>
<rect x="83.475" y="1.44998" width="2.725" height="2.725" fill="#F1C76D"/>
<rect x="83.475" y="4.17499" width="2.725" height="2.725" fill="#F1C76D"/>
<rect x="83.475" y="6.89999" width="2.725" height="2.725" fill="#F1C76D"/>
<rect x="83.475" y="9.625" width="2.725" height="2.725" fill="#F2CA97"/>
<rect x="83.475" y="12.35" width="2.725" height="2.725" fill="#F1C76D"/>
<rect x="83.475" y="15.075" width="2.725" height="2.725" fill="#F1C76D"/>
<rect x="83.475" y="17.8" width="2.725" height="2.725" fill="#F7D742"/>
<rect x="83.475" y="20.525" width="2.725" height="2.725" fill="#F1C76D"/>
<rect x="86.2" y="-1.27502" width="2.725" height="2.725" fill="#E06E52"/>
<rect x="86.2" y="1.44998" width="2.725" height="2.725" fill="#F2CA97"/>
<rect x="86.2" y="4.17499" width="2.725" height="2.725" fill="#F1C76D"/>
<rect x="86.2" y="6.89999" width="2.725" height="2.725" fill="#F1C76D"/>
<rect x="86.2" y="9.625" width="2.725" height="2.725" fill="#F1C76D"/>
<rect x="86.2" y="12.35" width="2.725" height="2.725" fill="#E06E52"/>
<rect x="86.2" y="15.075" width="2.725" height="2.725" fill="#F1C76D"/>
<rect x="86.2" y="17.8" width="2.725" height="2.725" fill="#F1C76D"/>
<rect x="86.2" y="20.525" width="2.725" height="2.725" fill="#F1C76D"/>
<rect x="88.9249" y="-1.27502" width="2.725" height="2.725" fill="#F1C76D"/>
<rect x="88.9249" y="1.44998" width="2.725" height="2.725" fill="#F1C76D"/>
<rect x="88.9249" y="4.17499" width="2.725" height="2.725" fill="#F1C76D"/>
<rect x="88.9249" y="6.89999" width="2.725" height="2.725" fill="#EFA308"/>
<rect x="88.9249" y="9.625" width="2.725" height="2.725" fill="#F1C76D"/>
<rect x="88.9249" y="12.35" width="2.725" height="2.725" fill="#F1C76D"/>
<rect x="88.9249" y="15.075" width="2.725" height="2.725" fill="#F1C76D"/>
<rect x="88.9249" y="17.8" width="2.725" height="2.725" fill="#F1C76D"/>
<rect x="88.9249" y="20.525" width="2.725" height="2.725" fill="#F1C76D"/>
<rect x="91.65" y="-1.27502" width="2.725" height="2.725" fill="#F1C76D"/>
<rect x="91.65" y="1.44998" width="2.725" height="2.725" fill="#D45301"/>
<rect x="91.65" y="4.17499" width="2.725" height="2.725" fill="#F1C76D"/>
<rect x="91.65" y="6.89999" width="2.725" height="2.725" fill="#F1C76D"/>
<rect x="91.65" y="9.625" width="2.725" height="2.725" fill="#F1C76D"/>
<rect x="91.65" y="12.35" width="2.725" height="2.725" fill="#F1C76D"/>
<rect x="91.65" y="15.075" width="2.725" height="2.725" fill="#F1C76D"/>
<rect x="91.65" y="17.8" width="2.725" height="2.725" fill="#E59613"/>
<rect x="91.65" y="20.525" width="2.725" height="2.725" fill="#F1C76D"/>
<rect x="94.375" y="-1.27502" width="2.725" height="2.725" fill="#F1C76D"/>
<rect x="94.375" y="1.44998" width="2.725" height="2.725" fill="#F1C76D"/>
<rect x="94.375" y="4.17499" width="2.725" height="2.725" fill="#E06E52"/>
<rect x="94.375" y="6.89999" width="2.725" height="2.725" fill="#E06E52"/>
<rect x="94.375" y="9.625" width="2.725" height="2.725" fill="#F1C76D"/>
<rect x="94.375" y="12.35" width="2.725" height="2.725" fill="#F1C76D"/>
<rect x="94.375" y="15.075" width="2.725" height="2.725" fill="#F1C76D"/>
<rect x="94.375" y="17.8" width="2.725" height="2.725" fill="#F1C76D"/>
<rect x="94.375" y="20.525" width="2.725" height="2.725" fill="#F1C76D"/>
<rect x="97.1" y="-1.27502" width="2.725" height="2.725" fill="#F7D742"/>
<rect x="97.1" y="1.44998" width="2.725" height="2.725" fill="#F1C76D"/>
<rect x="97.1" y="4.17499" width="2.725" height="2.725" fill="#F1C76D"/>
<rect x="97.1" y="6.89999" width="2.725" height="2.725" fill="#F1C76D"/>
<rect x="97.1" y="9.625" width="2.725" height="2.725" fill="#D45301"/>
<rect x="97.1" y="12.35" width="2.725" height="2.725" fill="#F2CA97"/>
<rect x="97.1" y="15.075" width="2.725" height="2.725" fill="#F1C76D"/>
<rect x="97.1" y="17.8" width="2.725" height="2.725" fill="#F2CA97"/>
<rect x="97.1" y="20.525" width="2.725" height="2.725" fill="#F1C76D"/>
<rect x="99.825" y="-1.27502" width="2.725" height="2.725" fill="#F1C76D"/>
<rect x="99.825" y="1.44998" width="2.725" height="2.725" fill="#F1C76D"/>
<rect x="99.825" y="4.17499" width="2.725" height="2.725" fill="#F1C76D"/>
<rect x="99.825" y="6.89999" width="2.725" height="2.725" fill="#F1C76D"/>
<rect x="99.825" y="9.625" width="2.725" height="2.725" fill="#F1C76D"/>
<rect x="99.825" y="12.35" width="2.725" height="2.725" fill="#F1C76D"/>
<rect x="99.825" y="15.075" width="2.725" height="2.725" fill="#F1C76D"/>
<rect x="99.825" y="17.8" width="2.725" height="2.725" fill="#F1C76D"/>
<rect x="99.825" y="20.525" width="2.725" height="2.725" fill="#F1C76D"/>
<rect x="102.55" y="-1.27502" width="2.725" height="2.725" fill="#F1C76D"/>
<rect x="102.55" y="1.44998" width="2.725" height="2.725" fill="#F1C76D"/>
<rect x="102.55" y="4.17499" width="2.725" height="2.725" fill="#E06E52"/>
<rect x="102.55" y="6.89999" width="2.725" height="2.725" fill="#D45301"/>
<rect x="102.55" y="9.625" width="2.725" height="2.725" fill="#F1C76D"/>
<rect x="102.55" y="12.35" width="2.725" height="2.725" fill="#E06E52"/>
<rect x="102.55" y="15.075" width="2.725" height="2.725" fill="#F1C76D"/>
<rect x="102.55" y="17.8" width="2.725" height="2.725" fill="#F2CA97"/>
<rect x="102.55" y="20.525" width="2.725" height="2.725" fill="#F1C76D"/>
<rect x="105.275" y="-1.27502" width="2.725" height="2.725" fill="#F1C76D"/>
<rect x="105.275" y="1.44998" width="2.725" height="2.725" fill="#F1C76D"/>
<rect x="105.275" y="4.17499" width="2.725" height="2.725" fill="#F1C76D"/>
<rect x="105.275" y="6.89999" width="2.725" height="2.725" fill="#F1C76D"/>
<rect x="105.275" y="9.625" width="2.725" height="2.725" fill="#F1C76D"/>
<rect x="105.275" y="12.35" width="2.725" height="2.725" fill="#F1C76D"/>
<rect x="105.275" y="15.075" width="2.725" height="2.725" fill="#F1C76D"/>
<rect x="105.275" y="17.8" width="2.725" height="2.725" fill="#F1C76D"/>
<rect x="105.275" y="20.525" width="2.725" height="2.725" fill="#F1C76D"/>
<rect x="108" y="-1.27502" width="2.725" height="2.725" fill="#F1C76D"/>
<rect x="108" y="1.44998" width="2.725" height="2.725" fill="#F1C76D"/>
<rect x="108" y="4.17499" width="2.725" height="2.725" fill="#F1C76D"/>
<rect x="108" y="6.89999" width="2.725" height="2.725" fill="#F1C76D"/>
<rect x="108" y="9.625" width="2.725" height="2.725" fill="#F1C76D"/>
<rect x="108" y="12.35" width="2.725" height="2.725" fill="#F1C76D"/>
<rect x="108" y="15.075" width="2.725" height="2.725" fill="#F7D742"/>
<rect x="108" y="17.8" width="2.725" height="2.725" fill="#F1C76D"/>
<rect x="108" y="20.525" width="2.725" height="2.725" fill="#F1C76D"/>
<rect x="110.725" y="-1.27502" width="2.725" height="2.725" fill="#F1C76D"/>
<rect x="110.725" y="1.44998" width="2.725" height="2.725" fill="#F1C76D"/>
<rect x="110.725" y="4.17499" width="2.725" height="2.725" fill="#E59613"/>
<rect x="110.725" y="6.89999" width="2.725" height="2.725" fill="#E59613"/>
<rect x="110.725" y="9.625" width="2.725" height="2.725" fill="#F1C76D"/>
<rect x="110.725" y="12.35" width="2.725" height="2.725" fill="#F1C76D"/>
<rect x="110.725" y="15.075" width="2.725" height="2.725" fill="#F1C76D"/>
<rect x="110.725" y="17.8" width="2.725" height="2.725" fill="#EFA308"/>
<rect x="110.725" y="20.525" width="2.725" height="2.725" fill="#F1C76D"/>
<rect x="113.45" y="-1.27502" width="2.725" height="2.725" fill="#E59613"/>
<rect x="113.45" y="1.44998" width="2.725" height="2.725" fill="#F1C76D"/>
<rect x="113.45" y="4.17499" width="2.725" height="2.725" fill="#F1C76D"/>
<rect x="113.45" y="6.89999" width="2.725" height="2.725" fill="#F1C76D"/>
<rect x="113.45" y="9.625" width="2.725" height="2.725" fill="#F1C76D"/>
<rect x="113.45" y="12.35" width="2.725" height="2.725" fill="#F1C76D"/>
<rect x="113.45" y="15.075" width="2.725" height="2.725" fill="#F1C76D"/>
<rect x="113.45" y="17.8" width="2.725" height="2.725" fill="#F1C76D"/>
<rect x="113.45" y="20.525" width="2.725" height="2.725" fill="#F2CA97"/>
<rect x="116.175" y="-1.27502" width="2.725" height="2.725" fill="#F1C76D"/>
<rect x="116.175" y="1.44998" width="2.725" height="2.725" fill="#E06E52"/>
<rect x="116.175" y="4.17499" width="2.725" height="2.725" fill="#F1C76D"/>
<rect x="116.175" y="6.89999" width="2.725" height="2.725" fill="#F1C76D"/>
<rect x="116.175" y="9.625" width="2.725" height="2.725" fill="#F1C76D"/>
<rect x="116.175" y="12.35" width="2.725" height="2.725" fill="#E06E52"/>
<rect x="116.175" y="15.075" width="2.725" height="2.725" fill="#F1C76D"/>
<rect x="116.175" y="17.8" width="2.725" height="2.725" fill="#F2CA97"/>
<rect x="116.175" y="20.525" width="2.725" height="2.725" fill="#F1C76D"/>
<rect x="118.9" y="-1.27502" width="2.725" height="2.725" fill="#F7D742"/>
<rect x="118.9" y="1.44998" width="2.725" height="2.725" fill="#F1C76D"/>
<rect x="118.9" y="4.17499" width="2.725" height="2.725" fill="#F1C76D"/>
<rect x="118.9" y="6.89999" width="2.725" height="2.725" fill="#F2CA97"/>
<rect x="118.9" y="9.625" width="2.725" height="2.725" fill="#F1C76D"/>
<rect x="118.9" y="12.35" width="2.725" height="2.725" fill="#F1C76D"/>
<rect x="118.9" y="15.075" width="2.725" height="2.725" fill="#F1C76D"/>
<rect x="118.9" y="17.8" width="2.725" height="2.725" fill="#F2CA97"/>
<rect x="118.9" y="20.525" width="2.725" height="2.725" fill="#F1C76D"/>
<rect x="121.625" y="-1.27502" width="2.725" height="2.725" fill="#F1C76D"/>
<rect x="121.625" y="1.44998" width="2.725" height="2.725" fill="#F2CA97"/>
<rect x="121.625" y="4.17499" width="2.725" height="2.725" fill="#D45301"/>
<rect x="121.625" y="6.89999" width="2.725" height="2.725" fill="#F1C76D"/>
<rect x="121.625" y="9.625" width="2.725" height="2.725" fill="#F1C76D"/>
<rect x="121.625" y="12.35" width="2.725" height="2.725" fill="#F2CA97"/>
<rect x="121.625" y="15.075" width="2.725" height="2.725" fill="#F1C76D"/>
<rect x="121.625" y="17.8" width="2.725" height="2.725" fill="#F1C76D"/>
<rect x="121.625" y="20.525" width="2.725" height="2.725" fill="#F1C76D"/>
<rect x="124.35" y="-1.27502" width="2.725" height="2.725" fill="#F1C76D"/>
<rect x="124.35" y="1.44998" width="2.725" height="2.725" fill="#F1C76D"/>
<rect x="124.35" y="4.17499" width="2.725" height="2.725" fill="#F1C76D"/>
<rect x="124.35" y="6.89999" width="2.725" height="2.725" fill="#F1C76D"/>
<rect x="124.35" y="9.625" width="2.725" height="2.725" fill="#F1C76D"/>
<rect x="124.35" y="12.35" width="2.725" height="2.725" fill="#F1C76D"/>
<rect x="124.35" y="15.075" width="2.725" height="2.725" fill="#F2CA97"/>
<rect x="124.35" y="17.8" width="2.725" height="2.725" fill="#F1C76D"/>
<rect x="124.35" y="20.525" width="2.725" height="2.725" fill="#EFA308"/>
<rect x="127.075" y="-1.27502" width="2.725" height="2.725" fill="#E06E52"/>
<rect x="127.075" y="1.44998" width="2.725" height="2.725" fill="#F1C76D"/>
<rect x="127.075" y="4.17499" width="2.725" height="2.725" fill="#F1C76D"/>
<rect x="127.075" y="6.89999" width="2.725" height="2.725" fill="#E06E52"/>
<rect x="127.075" y="9.625" width="2.725" height="2.725" fill="#F1C76D"/>
<rect x="127.075" y="12.35" width="2.725" height="2.725" fill="#F1C76D"/>
<rect x="127.075" y="15.075" width="2.725" height="2.725" fill="#E59613"/>
<rect x="127.075" y="17.8" width="2.725" height="2.725" fill="#F1C76D"/>
<rect x="127.075" y="20.525" width="2.725" height="2.725" fill="#F1C76D"/>
<rect x="129.8" y="-1.27502" width="2.725" height="2.725" fill="#F1C76D"/>
<rect x="129.8" y="1.44998" width="2.725" height="2.725" fill="#F1C76D"/>
<rect x="129.8" y="4.17499" width="2.725" height="2.725" fill="#D45301"/>
<rect x="129.8" y="6.89999" width="2.725" height="2.725" fill="#F1C76D"/>
<rect x="129.8" y="9.625" width="2.725" height="2.725" fill="#F1C76D"/>
<rect x="129.8" y="12.35" width="2.725" height="2.725" fill="#D45301"/>
<rect x="129.8" y="15.075" width="2.725" height="2.725" fill="#F1C76D"/>
<rect x="129.8" y="17.8" width="2.725" height="2.725" fill="#F1C76D"/>
<rect x="129.8" y="20.525" width="2.725" height="2.725" fill="#F1C76D"/>
<rect x="132.525" y="-1.27502" width="2.725" height="2.725" fill="#F1C76D"/>
<rect x="132.525" y="1.44998" width="2.725" height="2.725" fill="#F2CA97"/>
<rect x="132.525" y="4.17499" width="2.725" height="2.725" fill="#F1C76D"/>
<rect x="132.525" y="6.89999" width="2.725" height="2.725" fill="#F7D742"/>
<rect x="132.525" y="9.625" width="2.725" height="2.725" fill="#F1C76D"/>
<rect x="132.525" y="12.35" width="2.725" height="2.725" fill="#F2CA97"/>
<rect x="132.525" y="15.075" width="2.725" height="2.725" fill="#F1C76D"/>
<rect x="132.525" y="17.8" width="2.725" height="2.725" fill="#E59613"/>
<rect x="132.525" y="20.525" width="2.725" height="2.725" fill="#D45301"/>
</g>
</svg>
