<?xml version="1.0" standalone="no"?>
<!DOCTYPE svg PUBLIC "-//W3C//DTD SVG 20010904//EN"
 "http://www.w3.org/TR/2001/REC-SVG-20010904/DTD/svg10.dtd">
<svg version="1.0" xmlns="http://www.w3.org/2000/svg"
 width="158.000000pt" height="158.000000pt" viewBox="0 0 158.000000 158.000000"
 preserveAspectRatio="xMidYMid meet">
<metadata>
Created by potrace 1.14, written by Peter Selinger 2001-2017
</metadata>
<g transform="translate(0.000000,158.000000) scale(0.100000,-0.100000)"
fill="#000000" stroke="none">
<path d="M106 1451 c-2 -3 -4 -300 -3 -658 l0 -653 78 0 79 0 2 442 3 441 185
-439 185 -439 60 0 60 0 0 655 0 655 -76 2 -76 2 0 -425 c0 -233 -2 -427 -5
-429 -2 -2 -86 189 -187 424 l-183 429 -59 0 c-33 -1 -61 -4 -63 -7z"/>
<path d="M1180 1092 c-92 -10 -158 -49 -192 -115 -39 -77 -47 -146 -44 -397 3
-273 12 -316 81 -385 50 -50 102 -67 204 -64 126 3 195 50 236 160 18 49 20
79 20 314 0 231 -2 267 -20 320 -39 120 -146 183 -285 167z m117 -176 c14 -26
17 -69 18 -276 1 -244 -6 -332 -28 -355 -52 -51 -136 -33 -158 34 -11 34 -16
505 -6 556 9 44 20 63 40 73 56 28 109 15 134 -32z"/>
</g>
</svg>
