<?xml version="1.0" standalone="no"?>
<!DOCTYPE svg PUBLIC "-//W3C//DTD SVG 20010904//EN"
 "http://www.w3.org/TR/2001/REC-SVG-20010904/DTD/svg10.dtd">
<svg version="1.0" xmlns="http://www.w3.org/2000/svg"
 width="158.000000pt" height="158.000000pt" viewBox="0 0 158.000000 158.000000"
 preserveAspectRatio="xMidYMid meet">
<metadata>
Created by potrace 1.14, written by Peter Selinger 2001-2017
</metadata>
<g transform="translate(0.000000,158.000000) scale(0.100000,-0.100000)"
fill="#000000" stroke="none">
<path d="M45 1299 l-27 -22 8 -141 c8 -148 9 -260 3 -462 -4 -137 2 -154 56
-154 48 0 72 34 75 107 5 129 5 361 -1 406 -3 26 -3 47 0 47 9 -1 53 -63 186
-260 152 -225 201 -289 228 -296 32 -7 76 2 97 21 17 15 18 43 17 386 -2 405
0 389 -62 389 -74 0 -78 -17 -70 -328 5 -169 4 -263 -2 -257 -6 6 -63 89 -128
185 -65 96 -126 186 -137 200 -10 14 -46 61 -79 105 -77 102 -109 116 -164 74z"/>
<path d="M1086 999 c-119 -36 -175 -76 -238 -173 -45 -71 -59 -115 -59 -199
-1 -87 7 -118 53 -215 59 -123 196 -212 327 -212 106 0 229 57 304 140 70 78
107 160 106 234 -1 97 -13 150 -50 211 -108 181 -277 263 -443 214z m169 -125
c100 -35 200 -182 198 -294 -3 -131 -123 -249 -256 -252 -64 -1 -143 25 -180
60 -88 82 -120 261 -66 366 30 58 73 92 149 119 59 20 96 21 155 1z"/>
</g>
</svg>
