<svg width="311" height="127" viewBox="0 0 311 127" fill="none" xmlns="http://www.w3.org/2000/svg">
<path d="M46.902 32.34H56.104V57.452C60.232 53.5533 64.3887 51.604 68.574 51.604C71.2687 51.604 73.1607 52.5787 74.25 54.528C75.3967 56.4773 75.97 58.8853 75.97 61.752V102H66.768V64.418C66.768 62.526 66.4813 61.1213 65.908 60.204C65.3347 59.2867 64.3027 58.828 62.812 58.828C60.8053 58.828 58.5693 59.9173 56.104 62.096V102H46.902V32.34ZM98.7009 102.688C94.8595 102.688 91.8782 101.971 89.7569 100.538C87.6355 99.0473 86.1449 96.8687 85.2849 94.002C84.4249 91.1353 83.9949 87.4087 83.9949 82.822V71.47C83.9949 64.59 85.0555 59.5733 87.1769 56.42C89.3555 53.2093 93.1969 51.604 98.7009 51.604C102.714 51.604 105.724 52.4353 107.731 54.098C109.795 55.7607 111.142 58.1113 111.773 61.15C112.461 64.1313 112.805 68.1733 112.805 73.276V77.318H93.1969V87.294C93.1969 90.3327 93.6269 92.54 94.4869 93.916C95.4042 95.2347 96.8375 95.894 98.7869 95.894C100.736 95.894 102.055 95.2347 102.743 93.916C103.431 92.54 103.775 90.476 103.775 87.724V84.714H112.719V86.606C112.719 91.8233 111.601 95.808 109.365 98.56C107.129 101.312 103.574 102.688 98.7009 102.688ZM103.775 72.33V67.858C103.775 64.4753 103.431 62.0673 102.743 60.634C102.112 59.1433 100.736 58.398 98.6149 58.398C97.1242 58.398 95.9775 58.742 95.1749 59.43C94.4295 60.118 93.9135 61.2647 93.6269 62.87C93.3402 64.418 93.1969 66.6827 93.1969 69.664V72.33H103.775ZM134.898 102.688C131.057 102.688 128.075 101.971 125.954 100.538C123.833 99.0473 122.342 96.8687 121.482 94.002C120.622 91.1353 120.192 87.4087 120.192 82.822V71.47C120.192 64.59 121.253 59.5733 123.374 56.42C125.553 53.2093 129.394 51.604 134.898 51.604C138.911 51.604 141.921 52.4353 143.928 54.098C145.992 55.7607 147.339 58.1113 147.97 61.15C148.658 64.1313 149.002 68.1733 149.002 73.276V77.318H129.394V87.294C129.394 90.3327 129.824 92.54 130.684 93.916C131.601 95.2347 133.035 95.894 134.984 95.894C136.933 95.894 138.252 95.2347 138.94 93.916C139.628 92.54 139.972 90.476 139.972 87.724V84.714H148.916V86.606C148.916 91.8233 147.798 95.808 145.562 98.56C143.326 101.312 139.771 102.688 134.898 102.688ZM139.972 72.33V67.858C139.972 64.4753 139.628 62.0673 138.94 60.634C138.309 59.1433 136.933 58.398 134.812 58.398C133.321 58.398 132.175 58.742 131.372 59.43C130.627 60.118 130.111 61.2647 129.824 62.87C129.537 64.418 129.394 66.6827 129.394 69.664V72.33H139.972ZM157.593 52.292H166.795V59.344C168.515 56.5347 170.264 54.5567 172.041 53.41C173.876 52.2633 175.797 51.69 177.803 51.69C178.319 51.69 178.807 51.7187 179.265 51.776V61.924C177.431 61.236 175.739 60.892 174.191 60.892C172.701 60.892 171.353 61.2647 170.149 62.01C169.003 62.698 167.885 63.9307 166.795 65.708V102H157.593V52.292ZM185.568 35.264H194.77V44.896H185.568V35.264ZM185.568 52.292H194.77V102H185.568V52.292ZM204.189 72.588H223.367V79.554H204.189V72.588Z" fill="black"/>
<path d="M233.418 32.34H240.04L259.82 78.608V32.34H267.904V102H261.712L241.674 54.442V102H233.418V32.34Z" fill="url(#paint0_angular)"/>
<path d="M292.318 102.688C287.043 102.688 283.288 101.14 281.052 98.044C278.873 94.8907 277.784 90.3327 277.784 84.37V69.922C277.784 63.9593 278.873 59.43 281.052 56.334C283.288 53.1807 287.043 51.604 292.318 51.604C297.535 51.604 301.233 53.1807 303.412 56.334C305.648 59.43 306.766 63.9593 306.766 69.922V84.37C306.766 90.3327 305.648 94.8907 303.412 98.044C301.233 101.14 297.535 102.688 292.318 102.688ZM292.318 95.894C293.981 95.894 295.185 95.4067 295.93 94.432C296.675 93.4573 297.134 92.2533 297.306 90.82C297.478 89.3867 297.564 87.4373 297.564 84.972V69.406C297.564 66.9407 297.478 64.9913 297.306 63.558C297.134 62.0673 296.675 60.8347 295.93 59.86C295.185 58.8853 293.981 58.398 292.318 58.398C290.655 58.398 289.423 58.8853 288.62 59.86C287.875 60.8347 287.416 62.0673 287.244 63.558C287.072 64.9913 286.986 66.9407 286.986 69.406V84.972C286.986 87.4373 287.072 89.3867 287.244 90.82C287.416 92.2533 287.875 93.4573 288.62 94.432C289.423 95.4067 290.655 95.894 292.318 95.894Z" fill="black"/>
<path d="M22.876 102.774C15.996 102.774 11.1513 100.739 8.342 96.668C5.53267 92.54 4.128 86.864 4.128 79.64V55.044C4.128 47.4187 5.504 41.628 8.256 37.672C11.008 33.716 15.8813 31.738 22.876 31.738C29.1253 31.738 33.5973 33.4293 36.292 36.812C39.044 40.1947 40.42 45.1827 40.42 51.776V57.28H31.218V52.378C31.218 49.1673 31.0747 46.702 30.788 44.982C30.5013 43.262 29.756 41.886 28.552 40.854C27.4053 39.822 25.542 39.306 22.962 39.306C20.3247 39.306 18.3467 39.8793 17.028 41.026C15.7667 42.1153 14.9353 43.6633 14.534 45.67C14.1327 47.6193 13.932 50.2567 13.932 53.582V81.188C13.932 84.7427 14.2187 87.5233 14.792 89.53C15.3653 91.5367 16.2827 92.97 17.544 93.83C18.8627 94.69 20.6687 95.12 22.962 95.12C25.4273 95.12 27.262 94.5753 28.466 93.486C29.67 92.3967 30.4153 90.906 30.702 89.014C31.046 87.122 31.218 84.542 31.218 81.274V76.114H40.42V81.274C40.42 88.2113 39.1013 93.5433 36.464 97.27C33.884 100.939 29.3547 102.774 22.876 102.774Z" fill="url(#paint1_radial)"/>
<defs>
<radialGradient id="paint0_angular" cx="0" cy="0" r="1" gradientUnits="userSpaceOnUse" gradientTransform="translate(268 32.5) rotate(116.4) scale(77.5919 28.1041)">
<stop stop-color="#FF0000"/>
<stop offset="1" stop-color="#C42A2A"/>
</radialGradient>
<radialGradient id="paint1_radial" cx="0" cy="0" r="1" gradientUnits="userSpaceOnUse" gradientTransform="translate(22 32.5) rotate(90) scale(69.5 24.626)">
<stop stop-color="#E52C13"/>
<stop offset="1" stop-color="#EFA308"/>
</radialGradient>
</defs>
</svg>
